<svg width="40" height="40" viewBox="0 0 40 40" fill="none" xmlns="http://www.w3.org/2000/svg">
<rect width="40" height="40" rx="20" fill="#2563EB"/>
<path d="M20.0247 29.24C18.8247 29.24 17.7047 29.016 16.6647 28.568C15.6247 28.12 14.7127 27.504 13.9287 26.72C13.1447 25.92 12.5287 25 12.0807 23.96C11.6487 22.904 11.4327 21.776 11.4327 20.576C11.4327 19.376 11.6487 18.256 12.0807 17.216C12.5287 16.176 13.1367 15.264 13.9047 14.48C14.6887 13.68 15.5927 13.064 16.6167 12.632C17.6567 12.184 18.7767 11.96 19.9767 11.96C21.1767 11.96 22.2887 12.184 23.3127 12.632C24.3527 13.064 25.2647 13.68 26.0487 14.48C26.8327 15.264 27.4407 16.184 27.8727 17.24C28.3207 18.28 28.5447 19.4 28.5447 20.6C28.5447 21.8 28.3207 22.928 27.8727 23.984C27.4407 25.024 26.8327 25.936 26.0487 26.72C25.2807 27.504 24.3767 28.12 23.3367 28.568C22.3127 29.016 21.2087 29.24 20.0247 29.24ZM19.9767 26.6C21.1127 26.6 22.1047 26.344 22.9527 25.832C23.8167 25.32 24.4887 24.616 24.9687 23.72C25.4647 22.808 25.7127 21.76 25.7127 20.576C25.7127 19.696 25.5687 18.896 25.2807 18.176C25.0087 17.44 24.6167 16.808 24.1047 16.28C23.5927 15.736 22.9847 15.32 22.2807 15.032C21.5927 14.744 20.8247 14.6 19.9767 14.6C18.8567 14.6 17.8647 14.856 17.0007 15.368C16.1527 15.864 15.4807 16.56 14.9847 17.456C14.5047 18.352 14.2647 19.392 14.2647 20.576C14.2647 21.456 14.4007 22.272 14.6727 23.024C14.9607 23.76 15.3527 24.392 15.8487 24.92C16.3607 25.448 16.9687 25.864 17.6727 26.168C18.3767 26.456 19.1447 26.6 19.9767 26.6Z" fill="white"/>
</svg>
